<svg version="1.1" viewBox="0.0 0.0 264.56692913385825 264.56692913385825" fill="none" stroke="none" stroke-linecap="square" stroke-miterlimit="10" xmlns:xlink="http://www.w3.org/1999/xlink" xmlns="http://www.w3.org/2000/svg"><clipPath id="p.0"><path d="m0 0l264.56693 0l0 264.56693l-264.56693 0l0 -264.56693z" clip-rule="nonzero"/></clipPath><g clip-path="url(#p.0)"><path fill="#ffffff" d="m0 0l264.56693 0l0 264.56693l-264.56693 0z" fill-rule="evenodd"/><path fill="#000000" fill-opacity="0.0" d="m-274.65616 9.459317l611.77954 0l0 231.08661l-611.77954 0z" fill-rule="evenodd"/><path fill="#000000" d="m38.02569 83.29558l0 -22.171879l23.96875 0l0 22.171879l-23.96875 0zm0 102.84375l0 -90.5625l23.96875 0l0 90.5625l-23.96875 0zm130.91574 0l-23.96875 0l0 -46.21875q0 -14.671875 -1.53125 -18.96875q-1.53125 -4.3125 -5.0 -6.703125q-3.453125 -2.390625 -8.3125 -2.390625q-6.2187424 0 -11.171867 3.421875q-4.9375 3.40625 -6.78125 9.03125q-1.828125 5.625 -1.828125 20.8125l0 41.015625l-23.96875 0l0 -90.5625l22.265625 0l0 13.296875q11.859375 -15.34375 29.843742 -15.34375q7.9375 0 14.5 2.859375q6.5625 2.84375 9.9375 7.28125q3.375 4.4375 4.6875 10.0625q1.328125 5.625 1.328125 16.125l0 56.28125zm13.812012 -90.5625l13.296875 0l0 -6.828125q0 -11.421875 2.4375 -17.046875q2.4375 -5.640625 8.953125 -9.171879q6.53125 -3.546875 16.5 -3.546875q10.234375 0 20.046875 3.078125l-3.25 16.703129q-5.703125 -1.359375 -11.0 -1.359375q-5.203125 0 -7.46875 2.4375q-2.25 2.421875 -2.25 9.328125l0 6.40625l17.90625 0l0 18.84375l-17.90625 0l0 71.71875l-23.96875 0l0 -71.71875l-13.296875 0l0 -18.84375z" fill-rule="nonzero"/><path fill="#ff0000" d="m0 195.4042l220.91339 0l0 28.220459l-220.91339 0z" fill-rule="evenodd"/><path fill="#ff0000" d="m33.335957 72.02231l0 0c0 -9.245331 7.790951 -16.740154 17.401577 -16.740154l0 0c4.615185 0 9.041344 1.7636871 12.304771 4.903076c3.2634277 3.139389 5.0968018 7.397312 5.0968018 11.837078l0 0c0 9.245338 -7.790951 16.740158 -17.401573 16.740158l0 0c-9.610626 0 -17.401577 -7.4948196 -17.401577 -16.740158z" fill-rule="evenodd"/><path fill="#ffffff" d="m144.91602 151.78477l76.031494 0l0 8.314957l-76.031494 0z" fill-rule="evenodd"/><path fill="#ff0000" d="m144.90552 159.6588l76.031494 0l0 28.220474l-76.031494 0z" fill-rule="evenodd"/></g></svg>